<svg id="Capa_1" enable-background="new 0 0 511.95 511.95" height="512" viewBox="0 0 511.95 511.95" width="512" xmlns="http://www.w3.org/2000/svg"><path d="m416.623 315.59c0 108.27-88.09 196.36-196.36 196.36-108.28 0-196.36-88.09-196.36-196.36 0-46.02 16.25-90.76 45.76-126l150.6-189.59 150.59 189.59c29.52 35.24 45.77 79.98 45.77 126z" fill="#4abbf0"/><path d="m416.623 315.59c0 108.27-88.09 196.36-196.36 196.36v-511.95l150.59 189.59c29.52 35.24 45.77 79.98 45.77 126z" fill="#009be5"/><path d="m488.047 269.549c0 73.826-60.066 133.892-133.892 133.892-73.833 0-133.892-60.066-133.892-133.892 0-31.38 11.08-61.887 31.202-85.916l102.69-129.276 102.683 129.276c20.129 24.029 31.209 54.536 31.209 85.916z" fill="#78d5f9"/><path d="m488.047 269.549c0 73.826-60.066 133.892-133.892 133.892v-349.084l102.683 129.276c20.129 24.029 31.209 54.536 31.209 85.916z" fill="#4abbf0"/></svg>